HIERARCHY
ROOT Hips
{
	OFFSET 0.00000 0.00000 0.00000
	CHANNELS 6 Xposition Yposition Zposition Zrotation Yrotation Xrotation 
	JOINT LHipJoint
	{
		OFFSET 0 0 0
		CHANNELS 3 Zrotation Yrotation Xrotation
		JOINT LeftUpLeg
		{
			OFFSET 1.58161 -1.81893 0.78828
			CHANNELS 3 Zrotation Yrotation Xrotation
			JOINT LeftLeg
			{
				OFFSET 2.53374 -6.96141 0.00000
				CHANNELS 3 Zrotation Yrotation Xrotation
				JOINT LeftFoot
				{
					OFFSET 2.63509 -7.23986 0.00000
					CHANNELS 3 Zrotation Yrotation Xrotation
					JOINT LeftToeBase
					{
						OFFSET 0.14115 -0.38781 2.05350
						CHANNELS 3 Zrotation Yrotation Xrotation
						End Site
						{
							OFFSET 0.00000 -0.00000 1.05543
						}
					}
				}
			}
		}
	}
	JOINT RHipJoint
	{
		OFFSET 0 0 0
		CHANNELS 3 Zrotation Yrotation Xrotation
		JOINT RightUpLeg
		{
			OFFSET -1.11138 -1.81893 0.78828
			CHANNELS 3 Zrotation Yrotation Xrotation
			JOINT RightLeg
			{
				OFFSET -2.58392 -7.09926 0.00000
				CHANNELS 3 Zrotation Yrotation Xrotation
				JOINT RightFoot
				{
					OFFSET -2.66423 -7.31992 0.00000
					CHANNELS 3 Zrotation Yrotation Xrotation
					JOINT RightToeBase
					{
						OFFSET -0.18831 -0.51739 2.12114
						CHANNELS 3 Zrotation Yrotation Xrotation
						End Site
						{
							OFFSET -0.00000 -0.00000 1.09845
						}
					}
				}
			}
		}
	}
	JOINT LowerBack
	{
		OFFSET 0 0 0
		CHANNELS 3 Zrotation Yrotation Xrotation
		JOINT Spine
		{
			OFFSET -0.01511 1.97958 -0.08829
			CHANNELS 3 Zrotation Yrotation Xrotation
			JOINT Spine1
			{
				OFFSET 0.08344 1.97334 -0.04330
				CHANNELS 3 Zrotation Yrotation Xrotation
				JOINT Neck
				{
					OFFSET 0 0 0
					CHANNELS 3 Zrotation Yrotation Xrotation
					JOINT Neck1
					{
						OFFSET 0.00559 1.76246 0.31246
						CHANNELS 3 Zrotation Yrotation Xrotation
						JOINT Head
						{
							OFFSET -0.07011 1.80354 -0.30524
							CHANNELS 3 Zrotation Yrotation Xrotation
							End Site
							{
								OFFSET -0.02385 1.83547 -0.13906
							}
						}
					}
				}
				JOINT LeftShoulder
				{
					OFFSET 0 0 0
					CHANNELS 3 Zrotation Yrotation Xrotation
					JOINT LeftArm
					{
						OFFSET 3.20667 1.30156 -0.60240
						CHANNELS 3 Zrotation Yrotation Xrotation
						JOINT LeftForeArm
						{
							OFFSET 4.95663 -0.00000 0.00000
							CHANNELS 3 Zrotation Yrotation Xrotation
							JOINT LeftHand
							{
								OFFSET 3.38177 -0.00000 0.00000
								CHANNELS 3 Zrotation Yrotation Xrotation
								JOINT LeftFingerBase
								{
									OFFSET 0 0 0
									CHANNELS 3 Zrotation Yrotation Xrotation
									JOINT LeftHandIndex1
									{
										OFFSET 0.66291 -0.00000 0.00000
										CHANNELS 3 Zrotation Yrotation Xrotation
										End Site
										{
											OFFSET 0.53445 -0.00000 0.00000
										}
									}
								}
								JOINT LThumb
								{
									OFFSET 0 0 0
									CHANNELS 3 Zrotation Yrotation Xrotation
									End Site
									{
										OFFSET 0.54261 -0.00000 0.54261
									}
								}
							}
						}
					}
				}
				JOINT RightShoulder
				{
					OFFSET 0 0 0
					CHANNELS 3 Zrotation Yrotation Xrotation
					JOINT RightArm
					{
						OFFSET -3.06877 1.34672 -0.60964
						CHANNELS 3 Zrotation Yrotation Xrotation
						JOINT RightForeArm
						{
							OFFSET -5.08365 -0.00000 0.00000
							CHANNELS 3 Zrotation Yrotation Xrotation
							JOINT RightHand
							{
								OFFSET -3.35984 -0.00000 0.00000
								CHANNELS 3 Zrotation Yrotation Xrotation
								JOINT RightFingerBase
								{
									OFFSET 0 0 0
									CHANNELS 3 Zrotation Yrotation Xrotation
									JOINT RightHandIndex1
									{
										OFFSET -0.82076 -0.00000 0.00000
										CHANNELS 3 Zrotation Yrotation Xrotation
										End Site
										{
											OFFSET -0.66172 -0.00000 0.00000
										}
									}
								}
								JOINT RThumb
								{
									OFFSET 0 0 0
									CHANNELS 3 Zrotation Yrotation Xrotation
									End Site
									{
										OFFSET -0.67182 -0.00000 0.67182
									}
								}
							}
						}
					}
				}
			}
		}
	}
}
MOTION
Frames: 9
Frame Time: .0083333
-1.0213 18.0163 -7.7389 0 0 0 0 0 0 -21 0 0 0 0 0 0 0 0 0 0 0 0 0 0 21 0 0 0 0 0 0 0 0 0 0 0 0 0 0 0 0 0 0 0 0 0 0 -16 0 0 21 0 0 11 0 0 0 -8 0 0 0 0 0 0 0 0 0 0 0 0 0 0 0 0 0 0 0 0 8 0 0 0 0 0 0 0 0 0 0 0 0 0 0 0 0 0
-1.0213 18.0163 -7.7389 -2.1661 -6.7791 9.2111 0.0000 0.0000 0.0000 -10.4397 -5.5800 -11.3894 1.6677 8.1367 23.1301 0.6158 -1.2389 -14.4508 0.3258 -3.6688 -10.1468 0.0000 0.0000 0.0000 27.2484 5.2637 -15.0372 -2.1140 -9.0996 26.1074 -0.8041 -0.0784 -16.9785 -0.8449 -5.8630 16.3875 -4.6061 -2.2900 -5.8558 5.4481 -2.9333 -0.7755 8.0781 -1.5655 3.0064 -5.6468 -8.7109 -15.0537 -2.4827 -10.1793 21.2067 -1.2077 -5.4836 9.3338 0.0000 -0.0000 0.0000 -94.4486 -2.2650 -4.9503 8.9626 -15.1007 -1.1903 -0.0000 -0.0000 7.6797 13.2176 30.8147 6.8606 -7.1250 0.0000 -0.0000 -21.1836 60.2111 -8.0748 0.0000 -0.0000 0.0000 80.4336 1.5500 28.6341 -16.2048 25.7975 -3.7346 0.0000 -0.0000 -9.1546 -20.9531 11.2019 -4.2544 7.1250 -0.0000 -0.0000 4.3264 -18.0271 2.7831
-1.0259 18.0118 -7.7327 -2.2140 -6.5942 9.1721 0.0000 0.0000 0.0000 -10.3665 -5.6256 -11.3058 1.6547 8.1064 23.0376 0.6108 -1.2118 -14.3977 0.3823 -3.9710 -10.9951 0.0000 0.0000 0.0000 27.3472 5.2295 -15.0005 -2.1197 -9.1111 26.1434 -0.7933 -0.3910 -16.9777 -0.6837 -5.2866 14.7279 -4.6156 -2.3125 -5.8259 5.5025 -2.9662 -0.7433 8.1401 -1.5847 3.0327 -5.6735 -8.7055 -15.2105 -2.4629 -10.1580 21.3025 -1.2056 -5.4730 9.3986 -0.0000 -0.0000 0.0000 -94.4259 -2.4716 -4.4936 9.0995 -15.3189 -1.2263 -0.0000 -0.0000 7.4141 12.9695 31.1537 6.7945 -7.1250 0.0000 -0.0000 -21.7186 60.4654 -8.4226 -0.0000 -0.0000 0.0000 80.3585 1.5237 28.7286 -16.1237 25.6881 -3.6994 0.0000 -0.0000 -8.9712 -20.7919 11.4869 -4.3242 7.1250 -0.0000 -0.0000 4.4473 -17.7384 2.8896
-1.0279 18.0089 -7.7253 -2.1841 -6.4391 9.1762 0.0000 0.0000 0.0000 -10.3907 -5.7369 -11.2414 1.6441 8.0818 22.9628 0.6042 -1.1258 -14.3406 0.4327 -4.2212 -11.6999 0.0000 0.0000 0.0000 27.3378 5.1353 -15.0477 -2.1254 -9.1226 26.1796 -0.7891 -0.5555 -16.9957 -0.5874 -4.9072 13.6440 -4.5785 -2.2416 -5.8952 5.5100 -2.8739 -0.6566 8.1328 -1.5442 3.1445 -5.8997 -8.8068 -15.5484 -2.3130 -10.2504 21.4230 -1.1552 -5.5143 9.5268 -0.0000 0.0000 0.0000 -94.3910 -2.8247 -3.6803 9.2310 -15.5278 -1.2612 -0.0000 -0.0000 6.9951 12.8348 31.2601 6.7427 -7.1250 0.0000 -0.0000 -21.9480 60.5312 -8.5513 -0.0000 0.0000 0.0000 80.2586 1.5821 28.6522 -16.0805 25.6297 -3.6807 0.0000 -0.0000 -8.8380 -20.6343 11.4289 -4.2673 7.1250 -0.0000 -0.0000 4.5562 -17.8134 2.9534
-1.0309 18.0096 -7.7178 -2.1220 -6.2901 9.2181 0.0000 0.0000 0.0000 -10.4373 -5.9199 -11.2008 1.6345 8.0593 22.8943 0.6122 -1.0905 -14.4472 0.4619 -4.3594 -12.0900 0.0000 0.0000 0.0000 27.2981 4.9407 -15.1696 -2.1283 -9.1284 26.1978 -0.7957 -0.5119 -17.0487 -0.6019 -4.9663 13.8125 -4.5889 -2.1903 -6.0817 5.5068 -2.8015 -0.5824 8.1370 -1.5158 3.3145 -6.0584 -8.8837 -15.6639 -2.2096 -10.3302 21.3786 -1.1118 -5.5502 9.5497 0.0000 -0.0000 0.0000 -94.3417 -3.1168 -2.9203 9.3647 -15.7398 -1.2973 -0.0000 -0.0000 6.5180 12.6779 31.1641 6.6400 -7.1250 0.0000 -0.0000 -22.0342 60.4058 -8.5206 0.0000 -0.0000 0.0000 80.1723 1.6517 28.5922 -15.9990 25.5193 -3.6455 0.0000 -0.0000 -8.7013 -20.5347 11.3619 -4.2204 7.1250 -0.0000 -0.0000 4.6244 -17.8925 2.9897
-1.0356 18.0101 -7.7120 -2.1403 -6.1278 9.2641 0.0000 0.0000 0.0000 -10.3801 -6.0443 -11.1977 1.6258 8.0389 22.8323 0.6242 -1.1426 -14.5770 0.4793 -4.4396 -12.3169 0.0000 0.0000 0.0000 27.3605 4.7941 -15.2614 -2.1279 -9.1276 26.1953 -0.8002 -0.5208 -17.0999 -0.6213 -5.0441 14.0344 -4.6060 -2.1884 -6.2754 5.5525 -2.7968 -0.5124 8.1917 -1.5226 3.4993 -6.0929 -8.9152 -15.7167 -2.2144 -10.3582 21.3063 -1.1121 -5.5653 9.5363 -0.0000 0.0000 0.0000 -94.3193 -3.4410 -2.5599 9.4632 -15.8955 -1.3241 -0.0000 -0.0000 6.3401 12.4278 31.2119 6.5149 -7.1250 0.0000 -0.0000 -22.3362 60.3905 -8.6362 -0.0000 0.0000 0.0000 80.0719 1.7357 28.6059 -15.8909 25.3724 -3.5991 0.0000 -0.0000 -8.6208 -20.5384 11.3421 -4.2140 7.1250 -0.0000 -0.0000 4.6212 -17.9133 2.9856
-1.0392 18.0115 -7.7041 -2.0926 -5.9790 9.2617 0.0000 0.0000 0.0000 -10.4127 -6.0706 -11.1781 1.6198 8.0247 22.7891 0.6252 -1.2193 -14.5686 0.4913 -4.4940 -12.4707 0.0000 0.0000 0.0000 27.3333 4.7941 -15.2323 -2.1250 -9.1217 26.1767 -0.8000 -0.6667 -17.1547 -0.6248 -5.0581 14.0743 -4.6591 -2.1783 -6.3990 5.5657 -2.7782 -0.4636 8.2358 -1.5199 3.6199 -6.1340 -8.9478 -15.7516 -2.1903 -10.3949 21.2686 -1.1033 -5.5820 9.5340 0.0000 -0.0000 0.0000 -94.2847 -3.6696 -2.0342 9.5996 -16.1109 -1.3617 -0.0000 -0.0000 6.0908 12.2418 31.4494 6.4586 -7.1250 0.0000 -0.0000 -22.7294 60.5634 -8.8917 0.0000 -0.0000 0.0000 79.9730 1.7065 28.6232 -15.8173 25.2723 -3.5676 0.0000 -0.0000 -8.6464 -20.5688 11.2447 -4.1851 7.1250 -0.0000 -0.0000 4.5976 -18.0138 2.9600
-1.0426 18.0125 -7.6967 -2.0903 -5.8185 9.2237 0.0000 0.0000 0.0000 -10.3937 -6.0952 -11.1300 1.6161 8.0158 22.7622 0.6238 -1.3137 -14.5283 0.5035 -4.5488 -12.6261 0.0000 0.0000 0.0000 27.3607 4.7965 -15.1427 -2.1194 -9.1106 26.1418 -0.7938 -0.8868 -17.1770 -0.5965 -4.9443 13.7497 -4.6436 -2.1715 -6.3829 5.5749 -2.7705 -0.4754 8.2382 -1.5147 3.5969 -6.1436 -8.9573 -15.6624 -2.1970 -10.4106 21.2087 -1.0996 -5.5909 9.4972 -0.0000 -0.0000 0.0000 -94.2168 -3.7197 -1.2790 9.8021 -16.4294 -1.4185 -0.0000 -0.0000 5.5338 12.1643 31.6601 6.4550 -7.1250 0.0000 -0.0000 -22.9889 60.7369 -9.0950 -0.0000 -0.0000 0.0000 79.9163 1.6014 28.6340 -15.6915 25.1005 -3.5141 0.0000 -0.0000 -8.6094 -20.5290 11.2144 -4.1653 7.1250 -0.0000 -0.0000 4.6248 -18.0491 2.9740
-1.0478 18.0107 -7.6930 -2.1717 -5.6380 9.2006 0.0000 0.0000 0.0000 -10.2608 -6.1009 -11.1040 1.6111 8.0041 22.7267 0.6124 -1.4676 -14.3528 0.4727 -4.4093 -12.2311 0.0000 0.0000 0.0000 27.4942 4.7106 -15.0957 -2.1105 -9.0925 26.0852 -0.7760 -1.1208 -17.0836 -0.4853 -4.4672 12.3949 -4.5578 -2.1596 -6.3310 5.5968 -2.7622 -0.4879 8.2140 -1.5074 3.5501 -6.1091 -8.9504 -15.6242 -2.2447 -10.4006 21.1364 -1.1148 -5.5888 9.4597 -0.0000 0.0000 0.0000 -94.0896 -3.7999 -0.4226 10.0058 -16.7487 -1.4766 -0.0000 -0.0000 4.8820 12.1521 31.8371 6.4804 -7.1250 0.0000 -0.0000 -23.1537 60.8948 -9.2517 -0.0000 0.0000 0.0000 79.9232 1.5606 28.4729 -15.5124 24.8551 -3.4385 0.0000 -0.0000 -8.4127 -20.4102 11.2644 -4.1572 7.1250 -0.0000 -0.0000 4.7095 -18.0061 3.0333
